<?xml version="1.0" encoding="utf-8"?>
<!-- Generator: Adobe Illustrator 25.2.3, SVG Export Plug-In . SVG Version: 6.00 Build 0)  -->
<svg version="1.1" id="Layer_1" xmlns="http://www.w3.org/2000/svg" xmlns:xlink="http://www.w3.org/1999/xlink" x="0px" y="0px"
	 viewBox="0 0 363.7 74.8" style="enable-background:new 0 0 363.7 74.8;" xml:space="preserve">
<style type="text/css">
	.st0{fill:#FFFFFF;}
	.st1{fill:#8BBE3F;}
</style>
<path class="st0" d="M85.32,74.8V64.1h38.08c1.96,0,3.39-0.31,4.29-0.93c0.9-0.62,1.35-1.55,1.35-2.79V55.8H99.96
	c-2.72,0-5.01-0.26-6.87-0.78c-1.86-0.52-3.36-1.29-4.5-2.31c-1.14-1.02-1.97-2.28-2.49-3.78c-0.52-1.5-0.78-3.23-0.78-5.19V11.46
	h10.94v30.52c0,1.24,0.45,2.17,1.35,2.79c0.9,0.62,2.33,0.93,4.29,0.93h27.14V11.46h10.94v51.28c0,1.96-0.26,3.69-0.78,5.19
	c-0.52,1.5-1.35,2.76-2.49,3.78c-1.14,1.02-2.65,1.79-4.53,2.31c-1.88,0.52-4.16,0.78-6.84,0.78H85.32z"/>
<path class="st1" d="M173.42,55.8V10.95H144.5V0h68.79v10.95h-27.92V55.8H173.42z"/>
<path class="st1" d="M313.33,55.8c-3.42,0-6.3-0.33-8.65-0.98c-2.34-0.65-4.23-1.62-5.66-2.91s-2.48-2.87-3.13-4.76
	c-0.66-1.89-0.98-4.06-0.98-6.53V15.18c0-2.47,0.33-4.64,0.98-6.53c0.65-1.89,1.7-3.47,3.13-4.76s3.32-2.25,5.66-2.91
	c2.34-0.65,5.22-0.98,8.65-0.98h31.94c3.37,0,6.24,0.33,8.61,0.98c2.37,0.65,4.27,1.62,5.7,2.91c1.44,1.28,2.48,2.87,3.13,4.76
	s0.98,4.07,0.98,6.53v25.45c0,2.47-0.33,4.64-0.98,6.53s-1.7,3.47-3.13,4.76c-1.43,1.28-3.33,2.25-5.7,2.91
	c-2.37,0.65-5.24,0.98-8.61,0.98H313.33z M306.16,40.17c0,1.56,0.57,2.73,1.7,3.51c1.13,0.78,2.93,1.17,5.4,1.17h32.09
	c2.47,0,4.27-0.39,5.4-1.17c1.13-0.78,1.7-1.95,1.7-3.51V15.63c0-1.56-0.57-2.73-1.7-3.51c-1.13-0.78-2.93-1.17-5.4-1.17h-32.09
	c-2.47,0-4.27,0.39-5.4,1.17c-1.13,0.78-1.7,1.95-1.7,3.51V40.17z"/>
<g>
	<path class="st0" d="M281.44,0l-26.73,42.66l0,0l-6.22,9.93l0.56,0.87c0.71,1.11,1.57,1.91,2.61,2.42c1.03,0.5,2.05,0.75,3.06,0.75
		s2.03-0.25,3.06-0.75c1.03-0.5,1.9-1.31,2.6-2.42L294.66,0H281.44z"/>
	<polygon class="st1" points="227.98,0 214.77,0 248.49,52.59 254.71,42.66 	"/>
</g>
<g>
	<path class="st0" d="M62.76,11.46c2.72,0,5.01,0.26,6.87,0.78c1.86,0.52,3.36,1.29,4.5,2.31c1.14,1.02,1.97,2.28,2.49,3.78
		c0.52,1.5,0.78,3.23,0.78,5.19V55.8H66.46V25.88c0-1.24-0.45-2.17-1.35-2.79c-0.9-0.62-2.33-0.93-4.29-0.93h-5.54
		c-1.96,0-7.83,0.31-8.74,0.93c-0.9,0.62-1.35,1.55-1.35,2.79V55.8H34.25V23.52c0-1.96,0.26-3.69,0.78-5.19
		c0.52-1.5,1.35-2.76,2.49-3.78c1.14-1.02,2.65-1.79,4.53-2.31c1.88-0.52,4.16-0.78,6.84-0.78H62.76z"/>
</g>
<g>
	<path class="st0" d="M30.44,11.46c2.72,0,5.01,0.26,6.87,0.78c1.86,0.52,3.36,1.29,4.5,2.31c1.14,1.02,1.97,2.28,2.49,3.78
		c0.52,1.5,0.78,3.23,0.78,5.19V55.8H34.14V25.88c0-1.24-0.45-2.17-1.35-2.79c-0.9-0.62-2.33-0.93-4.29-0.93H16.58
		c-1.96,0-3.39,0.31-4.29,0.93c-0.9,0.62-1.35,1.55-1.35,2.79V55.8H0V23.52c0-1.96,0.26-3.69,0.78-5.19
		c0.52-1.5,1.35-2.76,2.49-3.78c1.14-1.02,2.65-1.79,4.53-2.31c1.88-0.52,4.16-0.78,6.84-0.78H30.44z"/>
</g>
</svg>
